<svg width="788" height="199" viewBox="0 0 788 199" fill="none" xmlns="http://www.w3.org/2000/svg">
<path d="M445.495 57.5421V11.9879L407.173 26.3735V129.47C407.173 190.608 486.213 199 486.213 199V160.639C486.213 160.639 445.495 157.042 445.495 129.47V93.506H486.213V57.5421H445.495Z" fill="black"/>
<path d="M340.109 199V124.675C340.109 104.295 383.222 93.506 383.222 93.506V55.1445C383.222 55.1445 301.787 64.7349 301.787 124.675C301.787 184.614 301.787 199 301.787 199H340.109Z" fill="black"/>
<path d="M0 199H40.7173V124.675H129.337V86.3132H40.7173V43.1566H129.337V4.79517H0V199Z" fill="black"/>
<path d="M196.401 199V0L158.079 9.59036V199H196.401Z" fill="black"/>
<path d="M268.255 199V55.1445L229.933 67.1325V199H268.255Z" fill="black"/>
<path fill-rule="evenodd" clip-rule="evenodd" d="M531.72 145.654H632.316V112.087C632.316 107.292 625.456 94.7208 617.945 85.7138C610.269 76.5083 604.293 72.658 593.994 66.5331C588.6 63.3249 581.973 59.8107 579.623 59.3403C567.647 56.9427 556.869 56.9427 546.091 59.3403C542.585 60.1207 535.557 63.0813 529.325 66.5331C518.844 72.3379 510.665 79.0948 505.374 85.7138C500.584 91.7078 493.398 103.47 493.398 112.087V145.654C493.398 156.523 502.756 168.637 505.12 171.698C505.216 171.823 505.302 171.933 505.374 172.027C509.968 178.021 522.14 186.413 529.325 191.208C532.918 193.605 543.696 197.319 549.684 198.401C555.672 199.482 567.647 199.482 573.635 198.401C579.623 197.319 589.436 193.605 593.994 191.208C598.784 188.689 611.957 178.021 611.957 178.021L586.809 151.648C586.809 151.648 582.665 155.616 579.623 157.642C576.141 159.961 574.05 161.234 570.043 162.437C563.324 164.455 558.797 164.455 552.079 162.437C548.072 161.234 545.981 159.961 542.498 157.642C542.309 157.516 542.127 157.394 541.948 157.275C539.229 155.469 537.478 154.307 535.313 151.648C533.591 149.531 531.72 145.654 531.72 145.654ZM531.72 108.7H591.599C591.599 108.7 586.512 101.308 582.018 97.9108C577.846 94.7568 575.099 93.2537 570.043 91.9168C566.45 90.9669 556.869 90.7181 553.277 91.9168C548.316 93.5721 545.473 94.7568 541.301 97.9108C536.808 101.308 531.72 108.7 531.72 108.7Z" fill="black"/>
<path fill-rule="evenodd" clip-rule="evenodd" d="M717.343 199C756.365 199 788 167.334 788 128.271C788 89.2085 756.365 57.5421 717.343 57.5421C678.322 57.5421 646.687 89.2085 646.687 128.271C646.687 167.334 678.322 199 717.343 199ZM716.146 160.638C734.665 160.638 749.678 145.61 749.678 127.072C749.678 108.534 734.665 93.506 716.146 93.506C697.627 93.506 682.614 108.534 682.614 127.072C682.614 145.61 697.627 160.638 716.146 160.638Z" fill="black"/>
</svg>
