<svg width="939" height="237" viewBox="0 0 939 237" fill="none" xmlns="http://www.w3.org/2000/svg">
<path fill-rule="evenodd" clip-rule="evenodd" d="M234.036 236.748V0L188.371 11.41V236.748H234.036ZM48.5197 236.748H0V5.70496H154.121V51.343H48.5197V102.686H154.121V148.324H48.5197V236.748ZM530.863 68.4569V14.262L485.197 31.3759V154.029C485.197 226.764 579.383 236.748 579.383 236.748V191.11C579.383 191.11 530.863 186.831 530.863 154.029V111.243H579.383V68.4569H530.863ZM405.282 236.748V148.324C405.282 124.079 456.657 111.243 456.657 111.243V65.605C456.657 65.605 359.617 77.014 359.617 148.324V236.748H405.282ZM319.659 65.605V236.748H273.994V79.867L319.659 65.605ZM633.61 173.283H753.483V133.349C753.483 127.644 745.309 112.688 736.358 101.973C727.211 91.021 720.09 86.44 707.818 79.154C701.39 75.337 693.493 71.156 690.693 70.596C676.422 67.744 663.579 67.744 650.735 70.596C646.558 71.525 638.183 75.047 630.757 79.154C618.267 86.06 608.521 94.098 602.216 101.973C596.508 109.104 587.945 123.097 587.945 133.349V173.283C587.945 186.213 599.094 200.623 601.912 204.266L601.913 204.266L601.913 204.267C602.028 204.416 602.13 204.547 602.216 204.659C607.69 211.79 622.195 221.773 630.757 227.478C635.038 230.33 647.881 234.748 655.017 236.035C662.152 237.322 676.422 237.322 683.557 236.035C690.693 234.748 702.386 230.33 707.818 227.478C713.526 224.481 729.223 211.79 729.223 211.79L699.256 180.414C699.256 180.414 694.318 185.135 690.693 187.545C686.544 190.304 684.052 191.818 679.277 193.249C671.271 195.65 665.876 195.65 657.871 193.249C653.096 191.818 650.604 190.304 646.454 187.545C646.229 187.395 646.012 187.25 645.798 187.108C642.558 184.96 640.472 183.577 637.892 180.414C635.84 177.895 633.61 173.283 633.61 173.283ZM633.61 129.319H704.964C704.964 129.319 698.902 120.525 693.547 116.483C688.575 112.731 685.302 110.943 679.277 109.352C674.996 108.222 663.579 107.926 659.298 109.352C653.387 111.322 649.999 112.731 645.028 116.483C639.674 120.525 633.61 129.319 633.61 129.319ZM939 152.603C939 199.075 901.303 236.748 854.803 236.748C808.305 236.748 770.608 199.075 770.608 152.603C770.608 106.13 808.305 68.457 854.803 68.457C901.303 68.457 939 106.13 939 152.603ZM893.335 151.176C893.335 173.231 875.445 191.109 853.377 191.109C831.309 191.109 813.419 173.231 813.419 151.176C813.419 129.122 831.309 111.243 853.377 111.243C875.445 111.243 893.335 129.122 893.335 151.176Z" fill="black"/>
</svg>
