<svg width="25" height="24" viewBox="0 0 25 24" fill="none" xmlns="http://www.w3.org/2000/svg">
<path d="M0.25 12C0.25 18.6274 5.62258 24 12.25 24C18.8774 24 24.25 18.6274 24.25 12C24.25 5.37258 18.8774 0 12.25 0C5.62258 0 0.25 5.37258 0.25 12Z" fill="#1877F2"/>
<path d="M18.25 12C18.25 8.7 15.55 6 12.25 6C8.95 6 6.25 8.7 6.25 12C6.25 15 8.425 17.475 11.275 17.925V13.725H9.775V12H11.275V10.65C11.275 9.15 12.175 8.325 13.525 8.325C14.2 8.325 14.875 8.475 14.875 8.475V9.975H14.125C13.375 9.975 13.15 10.425 13.15 10.875V12H14.8L14.5 13.725H13.075V18C16.075 17.55 18.25 15 18.25 12Z" fill="white"/>
</svg>
