<svg viewBox="0 0 100 133" fill="none" xmlns="http://www.w3.org/2000/svg">
<mask id="mask0_51_48" style="mask-type:luminance" maskUnits="userSpaceOnUse" x="0" y="13" width="100" height="108">
<path d="M100 13H0V121H100V13Z" fill="white"/>
</mask>
<g mask="url(#mask0_51_48)">
<path d="M44.8063 13.3717C35.2289 14.5225 27.3239 17.6209 19.9296 23.1803C17.412 25.057 12.4648 30.0321 10.5281 32.6524C2.92251 42.8859 -0.616219 54.5181 0.176035 66.6814C0.59857 73.1437 1.98942 78.8093 4.55984 84.528C10.1584 96.886 20.9859 107.208 33.0986 111.758C42.6584 115.335 51.8134 115.866 61.7605 113.387L64.0669 112.803L67.2007 115.087C68.926 116.326 70.9155 117.778 71.6373 118.292C74.5951 120.452 76.0035 120.823 81.1091 120.823C84.6303 120.823 84.8591 120.806 85.0352 120.487C85.1408 120.257 85.2113 116.539 85.2113 109.651V99.1878L86.2324 98.09C89.7535 94.2834 93.0105 89.2552 95.5986 83.5896C98.662 76.8972 100.106 68.8591 99.6479 60.9627C99.4366 56.9259 99.2253 55.244 98.662 52.7122C97.7641 48.6754 96.7077 45.6655 94.7183 41.5934C92.1655 36.3351 89.8944 33.0596 85.6162 28.4387C78.0634 20.2943 67.4472 15.0714 55.1936 13.4602C52.9225 13.1592 47.007 13.1061 44.8063 13.3717ZM68.4859 29.4832C70.2289 30.4747 70.4225 33.095 68.838 34.2813C68.4507 34.5645 68.3098 34.8124 68.3098 35.2373C68.3098 35.7862 68.3274 35.8039 69.507 36.0695C70.757 36.3528 72.2359 36.9725 73.169 37.5921L73.7148 37.9639L74.4542 37.1671C75.176 36.3705 75.1936 36.3528 75.088 35.3436C74.9824 34.4937 75.0352 34.2105 75.3873 33.5554C76.3732 31.6963 78.8908 31.4131 80.3521 32.9888C80.7746 33.4315 80.8979 33.7324 80.9507 34.5822C81.0915 36.5298 80.0352 37.7868 78.169 37.9285C77.2183 37.9993 77.0951 38.0701 76.3204 38.8492L75.4753 39.7168L76.0915 40.5665C77.1479 42.0184 77.6056 43.0806 77.9929 45.0814L78.1866 46.1082H79.1021C79.8944 46.0905 80.088 46.0197 80.5458 45.5416C82.0422 43.9836 84.5422 44.2669 85.5105 46.1082C86.0387 47.0997 86.0211 47.7725 85.4577 48.9056C84.8767 50.0564 84.1549 50.5345 82.9401 50.5345C81.8486 50.5345 81.2676 50.2689 80.5105 49.3836C79.9824 48.7816 79.8944 48.7462 79.0317 48.7993L78.1162 48.8525L77.8169 49.9148C77.4296 51.3489 76.9014 52.4997 76.0739 53.7213L75.3873 54.7305L76.3908 55.7397C77.3239 56.6603 77.4472 56.7312 78.2218 56.7312C80.4401 56.7312 81.831 59.2984 80.6514 61.2283C79.3662 63.2998 76.3028 63.0873 75.3169 60.8565C75.0352 60.2191 74.9824 59.8296 75.0704 59.0505L75.176 58.0591L74.4014 57.28L73.6091 56.501L72.1479 57.2269C71.3204 57.6519 70.176 58.0591 69.507 58.183L68.3098 58.4132V59.0328C68.3098 59.5463 68.4155 59.7587 68.838 60.0597C70 60.9273 70.2817 62.6801 69.4718 64.0611C69.1373 64.6453 68.8204 64.9109 68.1338 65.2119C65.088 66.5221 62.5352 62.6801 64.8943 60.3076C65.3697 59.8296 65.4929 59.564 65.4929 59.0328V58.3778L64.5951 58.2538C63.838 58.1476 62.8169 57.8289 61.2324 57.1738C60.9507 57.0676 60.9331 57.6519 60.8627 65.5306C60.8098 73.8165 60.7922 74.029 60.4049 75.2329C58.8204 80.031 55.6162 83.3949 51.2852 84.8113C50 85.2185 49.3134 85.3248 47.3415 85.4133L44.9472 85.5018L40.669 89.928C31.6197 99.2586 31.2852 99.5772 30.6866 99.5772C30.2817 99.5772 30.0176 99.4178 29.6831 99.0284L29.2253 98.4796V92.0526C29.2253 84.8113 29.3662 85.4133 27.7465 85.4133C26.0035 85.4133 23.5387 84.5634 21.6197 83.3063C19.2781 81.7837 17.5528 79.7654 16.3732 77.1982C15.0176 74.3123 15.0528 74.5956 15.0528 63.9903C15.0528 55.4742 15.088 54.3941 15.3697 53.2788C16.3028 49.6138 19.0669 46.1613 22.5 44.3731C25.2289 42.939 24.4542 43.0098 38.2042 43.0098H50.4401L51.8486 43.417C52.6056 43.6472 53.7852 44.1075 54.4366 44.4617C55.1056 44.8158 55.669 45.0637 55.7042 45.0282C55.7394 44.9928 55.8451 44.5679 55.9683 44.0898C56.1796 43.2223 57.0774 41.3279 57.7289 40.3541C57.9401 40.0531 58.0986 39.7699 58.0986 39.7168C58.0986 39.6636 57.7817 39.2741 57.412 38.8492C56.7781 38.1232 56.6549 38.0701 55.581 37.9639C54.1901 37.8045 53.5211 37.3796 52.9929 36.2643C52.6936 35.6446 52.6232 35.255 52.676 34.5822C52.8345 33.0242 53.8204 32.0858 55.4049 31.9973C56.6725 31.9088 57.6232 32.4045 58.2394 33.4492C58.5739 34.0511 58.6267 34.3344 58.5563 35.2196L58.4683 36.282L59.2781 37.0964L60.0704 37.9285L61.0739 37.3265C62.1479 36.6715 63.6091 36.1226 64.7535 35.9278C65.4225 35.8216 65.4929 35.7685 65.4929 35.2727C65.4929 34.9186 65.3169 34.5822 64.8943 34.1928C63.4331 32.794 63.7324 30.3685 65.4929 29.4478C66.3204 28.9875 67.6408 29.0052 68.4859 29.4832Z" fill="black"/>
<path d="M66.4613 39.1502C63.3275 39.4158 60.8627 41.08 59.6479 43.7712C59.1901 44.7627 59.0845 45.2407 59.0141 46.6571C58.9084 48.8703 59.331 50.3575 60.4753 51.9332C63.0282 55.4034 68.3275 56.1824 71.7429 53.5798C72.8345 52.7476 73.838 51.4375 74.331 50.1804C74.6655 49.3659 74.7359 48.8526 74.7359 47.082C74.7359 45.0637 74.7007 44.9043 74.1901 43.8066C73.2394 41.8059 71.6725 40.3365 69.7183 39.646C68.8204 39.3273 67.2535 39.0971 66.4613 39.1502ZM70.8803 42.8152C71.1972 43.0453 71.2148 43.3109 71.2148 46.905C71.2148 50.5345 71.1972 50.747 70.8627 50.9949C70.3521 51.3667 69.6831 51.2427 69.419 50.7116C69.1021 50.0919 69.1021 43.4526 69.419 43.063C69.8063 42.5496 70.3873 42.461 70.8803 42.8152ZM67.7465 44.019C67.8873 44.1607 67.9577 45.1699 67.9577 47.4184C67.9577 50.1273 67.9225 50.6408 67.6584 50.924C67.3063 51.3136 66.7605 51.3313 66.338 50.9417C66.0563 50.6939 66.0211 50.3398 66.0211 47.507C66.0211 44.8866 66.0739 44.32 66.3028 44.0899C66.6197 43.7535 67.4472 43.718 67.7465 44.019ZM64.4718 45.1699C64.7535 45.4178 64.7887 45.7542 64.7887 47.9496C64.7887 50.7647 64.6303 51.2427 63.7324 51.2427C62.8345 51.2427 62.676 50.7647 62.676 48.0204C62.676 45.8073 62.7113 45.5417 63.0282 45.223C63.4507 44.7981 64.0317 44.7627 64.4718 45.1699Z" fill="black"/>
<path d="M29.4894 53.7745C25.8979 54.9784 23.9789 57.758 24.1549 61.5115C24.2253 62.8749 24.3134 63.2466 24.8592 64.3797C25.6514 65.9554 26.0563 66.3981 31.5141 71.621C33.8908 73.8873 36.3204 76.2244 36.919 76.8086L38.0282 77.8709L40 75.9234C51.162 64.9994 50.4225 65.7608 51.1268 64.3266C53.0106 60.4846 51.4613 56.0407 47.5704 54.1994C46.4789 53.6682 46.25 53.6328 44.5423 53.6328C42.8873 53.6328 42.588 53.6859 41.6021 54.1463C40.5634 54.6243 38.8204 56.2 38.2394 57.1738C38.0282 57.528 38.0106 57.5103 37.7113 57.0853C36.9014 55.899 35.7923 54.9076 34.5599 54.3056C33.3979 53.7214 33.0634 53.6505 31.7253 53.5974C30.7923 53.562 29.9296 53.6328 29.4894 53.7745Z" fill="black"/>
</g>
</svg>
