<svg width="19" height="20" viewBox="0 0 19 20" fill="none" xmlns="http://www.w3.org/2000/svg">
<path fill-rule="evenodd" clip-rule="evenodd" d="M18.7497 10.2088C18.7497 9.55706 18.6912 8.93036 18.5825 8.32874H9.92578V11.8842H14.8725C14.6594 13.0331 14.0118 14.0066 13.0384 14.6584V16.9646H16.0089C17.7469 15.3644 18.7497 13.0081 18.7497 10.2088Z" fill="#4285F4"/>
<path fill-rule="evenodd" clip-rule="evenodd" d="M9.9258 19.1916C12.4075 19.1916 14.4881 18.3685 16.0089 16.9647L13.0384 14.6585C12.2153 15.21 11.1625 15.5359 9.9258 15.5359C7.53182 15.5359 5.50551 13.919 4.78272 11.7465H1.71191V14.1279C3.22434 17.1319 6.33275 19.1916 9.9258 19.1916Z" fill="#34A853"/>
<path fill-rule="evenodd" clip-rule="evenodd" d="M4.78283 11.7463C4.599 11.1948 4.49455 10.6057 4.49455 9.9999C4.49455 9.3941 4.599 8.805 4.78283 8.25351V5.87207H1.71202C1.0895 7.11293 0.734375 8.51672 0.734375 9.9999C0.734375 11.4831 1.0895 12.8869 1.71202 14.1277L4.78283 11.7463Z" fill="#FBBC05"/>
<path fill-rule="evenodd" clip-rule="evenodd" d="M9.9258 4.46419C11.2753 4.46419 12.4869 4.92795 13.4395 5.83875L16.0758 3.20245C14.484 1.71927 12.4033 0.808472 9.9258 0.808472C6.33275 0.808472 3.22434 2.86821 1.71191 5.87217L4.78272 8.25361C5.50551 6.08107 7.53182 4.46419 9.9258 4.46419Z" fill="#EA4335"/>
</svg>
