<svg width="20" height="20" viewBox="0 0 20 20" fill="none" xmlns="http://www.w3.org/2000/svg">
<circle cx="10" cy="10" r="10" fill="#F9F9F9"/>
<circle cx="10" cy="10" r="9" stroke="black" stroke-width="2"/>
<path fill-rule="evenodd" clip-rule="evenodd" d="M10 3.57141C9.55621 3.57141 9.19644 3.93118 9.19644 4.37498V9.19641H4.37501C3.93121 9.19641 3.57144 9.55618 3.57144 9.99998C3.57144 10.4438 3.93121 10.8036 4.37501 10.8036H9.19644V15.625C9.19644 16.0688 9.55621 16.4286 10 16.4286C10.4438 16.4286 10.8036 16.0688 10.8036 15.625V10.8036H15.625C16.0688 10.8036 16.4286 10.4438 16.4286 9.99998C16.4286 9.55618 16.0688 9.19641 15.625 9.19641H10.8036V4.37498C10.8036 3.93118 10.4438 3.57141 10 3.57141Z" fill="black"/>
</svg>
