<svg width="110" height="129" viewBox="0 0 110 129" fill="none" xmlns="http://www.w3.org/2000/svg">
<mask id="mask0_38_2" style="mask-type:luminance" maskUnits="userSpaceOnUse" x="0" y="0" width="110" height="129">
<path d="M109.914 0H0V128.031H109.914V0Z" fill="white"/>
</mask>
<g mask="url(#mask0_38_2)">
<path d="M16.5647 0.120784C16.5647 0.189804 18.549 2.22589 20.9647 4.65883L25.3647 9.07608L26.1757 8.55843C26.8487 8.1098 27.1937 8.02353 28.229 7.97177C29.2643 7.92001 29.6266 7.97177 30.2996 8.28236C32.9051 9.55921 33.0431 13.3553 30.5412 15.0981C29.9546 15.5122 29.5922 15.6157 28.6431 15.6675C27.3146 15.7537 26.4863 15.4259 25.6063 14.4596C24.709 13.476 24.6228 13.3035 24.5193 12.251L24.4157 11.2329L19.429 6.21177L14.4424 1.17333L11.7678 3.84784L9.11059 6.50509L11.4918 8.9898C12.8031 10.3529 14.4941 12.1129 15.2534 12.8894L16.651 14.3216H15.6847H14.7357L11.1984 10.8878L7.67843 7.45412L5.57334 9.54196C4.4 10.698 3.45099 11.6816 3.45099 11.7333C3.45099 11.7851 5.22824 13.6487 7.40235 15.8746C10.9569 19.5325 11.3882 19.9122 11.6816 19.7051C12.7686 18.9631 13.0965 18.7906 13.7176 18.6181C14.7529 18.3247 16.3404 18.5146 17.3929 19.0494C21.3788 21.0682 21.2753 26.1757 17.2204 28.3325C16.6165 28.6431 16.2024 28.7294 15.0118 28.7294C13.2863 28.7294 12.5616 28.4534 11.4228 27.2972C10.2839 26.1584 9.93883 25.244 9.92157 23.3459V21.7584L5.7804 17.6C3.52 15.3224 1.63922 13.4588 1.60471 13.4588C1.50118 13.4588 1.55294 19.2393 1.65647 21.6722L1.77725 24.0706L14.3388 36.6666L26.9176 49.28L27.0212 52.0753C27.1075 53.7835 27.0729 54.8706 26.9866 54.8706C26.8313 54.8706 24.6054 52.6447 7.71294 35.5969L0 27.8149V36.7012V45.5875L8.0753 53.8871C12.5098 58.4596 17.669 63.7913 19.5153 65.7412C21.3443 67.6737 23.4666 69.8996 24.1913 70.6588L25.5372 72.0393V67.0871V62.1349L15.1325 51.644C9.42118 45.8807 4.33099 40.7216 3.83059 40.1866L2.93334 39.2204L3.38196 38.8063L3.81334 38.3922L15.4604 50.0565L27.0902 61.7208V67.6565V73.5922L28.8675 75.404C29.8337 76.4047 31.9216 78.5788 33.509 80.2353L36.4078 83.2549V74.8346C36.4078 68.1396 36.356 66.4313 36.1835 66.4313C35.804 66.4313 34.8549 65.4306 34.5098 64.6713C34.0784 63.7224 34.0784 62.9113 34.5098 61.9624C34.8204 61.2722 34.8549 60.8235 34.8549 56.6134V52.0235L26.4518 43.4824C20.3435 37.2706 17.8934 34.8894 17.4619 34.7341C16.7718 34.5099 16.5647 34.251 16.5647 33.6299C16.5647 33.0949 17.0478 32.6118 17.5654 32.6118C18.0313 32.6118 18.6353 33.1812 18.6353 33.6471C18.6353 33.8196 19.0322 34.3546 19.5325 34.8031C20.0157 35.2518 23.9671 39.2722 28.2981 43.724L36.2007 51.7993L36.3216 56.0612L36.4424 60.3231L37.3396 60.2713C38.4612 60.1851 39.5828 60.72 40.2557 61.6863C41.2393 63.1184 41.0322 64.6369 39.669 65.9655L38.8235 66.7765V76.353V85.9466L41.2565 88.4831C42.5851 89.8808 43.7412 91.0369 43.8447 91.0713C43.931 91.1059 44 84.0487 44 72.2463V53.3694L43.1546 53.2487C42.24 53.1278 41.3772 52.6275 40.8424 51.9028C40.3075 51.1781 40.2384 49.6078 40.7043 48.7106C41.8259 46.5019 45.1043 46.5365 46.1569 48.7624C46.4157 49.3146 46.4501 49.6941 46.3466 51.3851L46.2259 53.3522L48.5381 55.716C49.7976 57.0102 51.5922 58.8393 52.5066 59.7882L54.1804 61.5137V56.0784V50.6431L51.3851 47.796C49.8494 46.2259 44.7075 40.9804 39.9451 36.149C35.2 31.3004 30.1098 26.1066 28.6431 24.5882L25.9687 21.8275L25.0713 21.7757L24.1569 21.724V20.7059V19.6706H25.0887C25.9169 19.6706 26.0549 19.7224 26.1584 20.0502C26.2793 20.4643 35.3207 29.8337 47.5028 42.171L54.9741 49.7459L67.9153 36.5631C84.2212 19.9294 83.6863 20.4988 83.6863 20.0502C83.6863 19.7051 83.7725 19.6706 84.8078 19.6706H85.9294V20.7059V21.7412H85.0149H84.1176L79.1137 26.8831C76.3529 29.7302 69.9687 36.2353 64.9301 41.3772L55.7334 50.7122V56.1129L55.7506 61.5137L59.7193 57.4588L63.6878 53.404L63.6016 51.4887C63.5153 49.4007 63.7223 48.6071 64.5506 47.8478C65.6549 46.8471 67.5702 46.8471 68.64 47.8478C69.6753 48.8141 69.9687 50.2463 69.3819 51.5231C68.9678 52.4377 68.2087 52.9553 66.949 53.1969L65.9137 53.404V72.3843V91.3647L68.5882 88.6557L71.2628 85.9294V76.284V66.6212L70.7278 66.2243C67.9843 64.2055 69.5718 59.8918 72.9193 60.2713L73.6784 60.3577V56.0266V51.7129L82.5647 42.7922C88.5349 36.8219 91.451 33.7678 91.451 33.5435C91.451 33.0949 91.9687 32.6118 92.4518 32.6118C92.9522 32.6118 93.5216 33.1984 93.5216 33.6988C93.5216 34.1819 93.0901 34.6306 92.5381 34.7169C92.331 34.7513 88.6557 38.3231 83.6172 43.4306L75.0588 52.0753V56.4753C75.0588 60.8235 75.0588 60.8925 75.4901 61.7381C75.9734 62.7043 76.0423 63.7224 75.6972 64.5851C75.4729 65.1028 74.4722 66.1208 73.7819 66.5177C73.5231 66.673 73.5059 67.3287 73.5404 74.9553L73.5922 83.2031L78.3028 78.3718L82.996 73.5231V67.6047V61.6863L94.6948 49.9875L106.376 38.2887L106.773 38.7546L107.17 39.2031L105.79 40.6871C105.031 41.5153 99.9404 46.6572 94.4878 52.1099L84.549 62.0313V66.949L84.5663 71.8666L85.964 70.4C90.2087 66 97.1623 58.8393 103.132 52.731L109.914 45.8118L109.896 36.9255V28.0393L96.4376 41.5843L82.996 55.1294V52.2824V49.4353L91.6753 40.7216C96.4376 35.9247 102.149 30.1788 104.358 27.9357L108.395 23.8635L108.464 18.6525C108.499 15.8055 108.464 13.4588 108.378 13.4588C108.309 13.4588 106.394 15.3569 104.133 17.6863L100.044 21.9137L100.009 23.5184C99.9922 25.3819 99.5953 26.3655 98.4737 27.3835C95.7819 29.8165 91.7616 29.04 90.1741 25.796C88.8628 23.1216 90.2776 19.7224 93.1247 18.7043C94.5223 18.2212 96.6101 18.5318 97.9388 19.429L98.5945 19.8777L102.649 15.7882L106.687 11.6988L104.496 9.52471L102.322 7.33333L98.8534 10.9224C95.7301 14.1318 95.3334 14.4941 94.8501 14.4769C93.3145 14.4251 93.2628 14.5113 97.1451 10.491C99.1466 8.43765 100.769 6.6949 100.769 6.60862C100.751 6.53961 99.6125 5.28001 98.2149 3.83059L95.6784 1.19059L90.6745 6.21177C85.6706 11.2157 85.6706 11.2329 85.5671 12.0957C85.3082 14.0972 83.531 15.7019 81.5812 15.7019C80.356 15.7019 79.5106 15.3051 78.6134 14.3216C77.8023 13.4243 77.6471 12.9929 77.6471 11.7161C77.6471 10.491 78.044 9.61098 78.9584 8.81726C79.7694 8.09255 80.2181 7.93726 81.4431 7.93726C82.5819 7.93726 83.1513 8.1098 84.0487 8.73098L84.6525 9.1451L88.6384 5.12471C90.8298 2.93333 92.8313 0.862745 93.0901 0.552157L93.556 0H83.531H73.5059V9.97333V19.9466L70.5035 23.0525L67.5012 26.1757L67.4322 28.5569L67.3804 30.9207L61.669 36.8219C58.5287 40.0487 55.716 42.9302 55.44 43.189L54.9223 43.6722L48.7796 37.3224L42.6369 30.9725L42.6196 28.6259V26.2793L41.9812 25.6063C41.636 25.244 40.2384 23.7946 38.8753 22.4141L36.4078 19.8949V9.95608V0H26.4863C21.0337 0 16.5647 0.0517647 16.5647 0.120784ZM26.676 25.9687C27.8322 26.4518 28.0219 27.9012 27.0557 28.9365C26.0204 30.0407 23.9843 29.1607 23.9843 27.6078C23.9843 26.9866 24.5019 26.2102 25.0713 25.9687C25.7788 25.6581 25.9341 25.6581 26.676 25.9687ZM85.4463 26.331C86.844 27.6941 85.1529 30.1099 83.3929 29.2643C83.0134 29.0746 82.72 28.764 82.5301 28.3325C81.7365 26.4346 83.9451 24.8988 85.4463 26.331ZM32.1976 37.8572C33.0087 38.6682 32.9396 39.5137 32.0251 40.2384C31.076 41.0149 29.5059 40.1866 29.5059 38.9099C29.5059 38.444 29.644 38.1506 30.0063 37.771C30.7137 37.0635 31.4384 37.0981 32.1976 37.8572ZM80.08 37.771C81.0981 38.789 80.356 40.5318 78.8894 40.549C78.1475 40.549 77.3019 39.7553 77.3019 39.0478C77.3193 37.5122 79.0275 36.7184 80.08 37.771ZM35.1482 42.6887C35.9075 43.396 37.1153 44.6384 37.8572 45.4494C39.0996 46.8299 39.1687 46.9506 38.9443 47.2784C38.7028 47.6235 38.5819 47.5028 35.9937 44.7937C34.1475 42.844 33.3365 41.8604 33.4054 41.6878C33.4572 41.5325 33.5781 41.4118 33.6471 41.4118C33.7334 41.4118 34.4063 41.9812 35.1482 42.6887ZM76.5772 41.7396C76.6118 41.8604 75.404 43.2063 73.8682 44.7419C71.6423 46.9851 71.0557 47.4855 70.9176 47.2784C70.8313 47.1404 70.7451 46.9678 70.7451 46.916C70.7451 46.8643 71.9357 45.5875 73.4024 44.0863C75.8698 41.5325 76.3875 41.1702 76.5772 41.7396Z" fill="url(#paint0_linear_38_2)"/>
<path d="M38.8235 9.57647V19.1529L41.7396 22.1898L44.6557 25.2439L44.7765 27.6769L44.8972 30.1098L49.1592 34.4752C51.4887 36.8738 53.7663 39.2549 54.1976 39.7552L54.9913 40.687L56.389 39.1341C57.1654 38.2714 59.4776 35.8385 61.5137 33.7333L65.2235 29.9027V27.5905L65.2407 25.2785L68.1569 22.2588C70.5207 19.8086 71.0729 19.1357 71.1592 18.6352C71.4353 16.9961 71.1419 0 70.8487 0C70.7451 0 69.6063 1.0698 68.2948 2.36393L65.931 4.72784L66.0172 11.5435L66.1207 18.3764L60.6337 23.9843C57.6141 27.0729 55.0948 29.6094 55.0259 29.6439C54.9051 29.6957 52.9381 27.6941 46.4501 21.0164L44 18.4973V11.6125V4.7451L41.7396 2.36393C40.3937 0.966274 39.3584 0 39.1513 0C38.8407 0 38.8407 0.310588 38.8235 9.57647Z" fill="url(#paint1_linear_38_2)"/>
<path d="M46.2431 11.8543V17.5139L50.6087 22.0347L54.9569 26.5554L58.3216 23.07C60.1678 21.1547 62.1349 19.1186 62.6871 18.5319L63.6706 17.4794L63.636 11.8715L63.5843 6.26368L59.2706 10.4394L54.9741 14.6151L51.5922 11.3539C49.7459 9.55937 47.8478 7.66133 47.3993 7.14368C46.9334 6.62603 46.4847 6.21191 46.3984 6.21191C46.3122 6.21191 46.2431 8.54133 46.2431 11.8543Z" fill="url(#paint2_linear_38_2)"/>
<path d="M27.5734 10.439C27.0212 10.7496 26.676 11.6813 26.9004 12.268C27.2972 13.3377 28.4016 13.7001 29.316 13.0789C30.1098 12.5441 30.2996 11.9229 29.9372 11.1637C29.5059 10.2319 28.5224 9.93858 27.5734 10.439Z" fill="url(#paint3_linear_38_2)"/>
<path d="M80.4423 10.6114C79.5106 11.4051 79.7176 12.751 80.8737 13.2169C81.3396 13.4239 81.5984 13.4413 82.0471 13.286C83.7035 12.7337 83.4447 10.4734 81.6847 10.2318C81.1153 10.1628 80.9082 10.2145 80.4423 10.6114Z" fill="url(#paint4_linear_38_2)"/>
<path d="M13.9593 21.6899C13.1828 22.1557 12.8722 22.9322 12.9239 24.1228C12.9412 24.3299 13.2 24.7784 13.5106 25.1235C14.5459 26.2624 16.2887 26.0381 17.0134 24.6577C17.7381 23.2255 16.7028 21.3965 15.1499 21.3965C14.7357 21.3965 14.2007 21.5346 13.9593 21.6899Z" fill="url(#paint5_linear_38_2)"/>
<path d="M93.7631 21.7244C93.211 22.0522 92.6588 23.0012 92.6588 23.6224C92.6588 24.1574 93.1419 25.0718 93.6251 25.4169C94.6431 26.1762 96.127 25.8483 96.8172 24.7268C97.68 23.3291 96.6619 21.3965 95.04 21.3965C94.6259 21.3965 94.0737 21.5346 93.7631 21.7244Z" fill="url(#paint6_linear_38_2)"/>
<path d="M46.2431 74.541L46.2604 93.7803L49.884 97.5763C51.8855 99.6641 53.5937 101.39 53.68 101.424C53.7663 101.459 53.8353 94.0391 53.8353 82.185V62.894L50.0393 59.0979L46.2431 55.3018V74.541Z" fill="url(#paint7_linear_38_2)"/>
<path d="M59.7365 59.2358L56.0784 62.8939V82.1849C56.0784 95.4885 56.1302 101.459 56.251 101.459C56.3546 101.459 57.3381 100.51 58.4424 99.3363C59.564 98.1802 61.1859 96.5064 62.0659 95.6092L63.6706 94.0045V74.7826C63.6706 64.2053 63.6188 55.5605 63.5325 55.5605C63.4635 55.5605 61.7553 57.217 59.7365 59.2358Z" fill="url(#paint8_linear_38_2)"/>
<path d="M33.8713 101.028C33.1984 101.321 32.7843 102.08 32.7843 103.012C32.7843 104.462 33.6298 105.186 35.2172 105.152C36.1835 105.117 36.891 104.686 37.2016 103.927C38.0816 101.822 36.08 100.062 33.8713 101.028Z" fill="url(#paint9_linear_38_2)"/>
<path d="M24.1569 114.572V127.341H25.9687H27.7805V114.572V101.804H25.9687H24.1569V114.572Z" fill="url(#paint10_linear_38_2)"/>
<path d="M4.31372 115.263V127.341H6.12549H7.93725V122.165V116.989H13.1137H18.2902V115.263V113.538H13.1137H7.93725V110.173V106.808H13.8902H19.8431V104.996V103.185H12.0784H4.31372V115.263Z" fill="url(#paint11_linear_38_2)"/>
<path d="M59.3051 104.668C59.236 104.737 59.1843 105.79 59.1843 107.015V109.223H57.3725H55.5607V110.949V112.674H57.3725H59.1843V120.008V127.341H60.996H62.8078V120.008V112.674H64.8784H66.949V110.949V109.223H64.8784H62.8251L62.7734 106.928L62.7216 104.651L61.0823 104.599C60.1678 104.582 59.3741 104.599 59.3051 104.668Z" fill="url(#paint12_linear_38_2)"/>
<path d="M49.9184 109.12C49.5216 109.24 48.9349 109.517 48.6071 109.724C48.0031 110.086 46.7263 111.38 46.2087 112.157C45.9325 112.571 45.9153 112.536 45.9153 110.897L45.8981 109.223H44.1725H42.4471V118.282V127.341H44.1553H45.8807L45.9325 121.785C45.9843 116.557 46.0016 116.16 46.3466 115.435C46.8298 114.4 47.6753 113.571 48.8141 113.054C49.5906 112.691 49.9184 112.64 50.8847 112.726C51.5059 112.76 52.1271 112.83 52.2651 112.864C52.5929 112.95 53.4557 109.465 53.1796 109.189C52.8863 108.895 50.7294 108.861 49.9184 109.12Z" fill="url(#paint13_linear_38_2)"/>
<path d="M75.8007 109.12C73.3678 109.724 71.1075 111.57 70.0204 113.883C69.2612 115.453 69.0196 116.574 69.0196 118.386C69.0196 122.665 71.3835 125.995 75.3176 127.221C77.1466 127.79 79.8384 127.738 81.7019 127.1C83.1859 126.599 84.204 126.065 85.0494 125.34L85.5843 124.891L84.8423 123.839C84.4454 123.252 84.0659 122.7 83.9969 122.614C83.9278 122.51 83.5482 122.665 83.0651 123.028C81.7019 124.011 80.5113 124.391 78.924 124.408C75.5075 124.408 73.0918 122.648 72.5569 119.697L72.436 119.059H79.3381H86.2228L86.3263 118.231C86.4471 117.178 86.171 115.09 85.7396 114.038C84.7906 111.605 82.5302 109.638 80.0454 109.068C79.0275 108.827 76.9051 108.861 75.8007 109.12ZM80.0454 112.433C81.4259 113.003 82.4957 114.279 82.7372 115.643L82.8581 116.298H77.7506C73.7819 116.298 72.6431 116.246 72.6431 116.074C72.6431 115.625 73.4887 114.107 74.0407 113.555C75.4212 112.174 78.1647 111.657 80.0454 112.433Z" fill="url(#paint14_linear_38_2)"/>
<path d="M96.1616 109.137C93.2282 109.775 90.7263 112.053 89.691 115.038C89.1216 116.729 89.1216 119.835 89.691 121.526C90.7953 124.701 93.2455 126.806 96.6102 127.462C101.476 128.428 106.152 125.46 107.325 120.698C107.602 119.507 107.567 116.763 107.239 115.538C106.601 113.123 104.858 111.018 102.598 109.913C100.475 108.861 98.491 108.636 96.1616 109.137ZM100.889 112.691C102.736 113.589 103.875 115.4 104.013 117.661C104.237 121.612 101.908 124.407 98.3702 124.407C96.6793 124.407 95.6957 124.011 94.5396 122.872C93.2282 121.56 92.8313 120.473 92.8313 118.282C92.8313 116.349 93.1937 115.193 94.16 114.072C95.8855 112.036 98.4565 111.518 100.889 112.691Z" fill="url(#paint15_linear_38_2)"/>
<path d="M33.3019 118.282V127.341H35.1137H36.9254V118.282V109.224H35.1137H33.3019V118.282Z" fill="url(#paint16_linear_38_2)"/>
</g>
<defs>
<linearGradient id="paint0_linear_38_2" x1="-4.85294" y1="-0.277859" x2="69.3538" y2="116.436" gradientUnits="userSpaceOnUse">
<stop stop-color="#FF84A7"/>
<stop offset="1" stop-color="#C12753"/>
</linearGradient>
<linearGradient id="paint1_linear_38_2" x1="37.3909" y1="-0.123741" x2="73.8524" y2="37.8904" gradientUnits="userSpaceOnUse">
<stop stop-color="#FF84A7"/>
<stop offset="1" stop-color="#C12753"/>
</linearGradient>
<linearGradient id="paint2_linear_38_2" x1="45.4738" y1="6.15004" x2="63.6038" y2="26.4554" gradientUnits="userSpaceOnUse">
<stop stop-color="#FF84A7"/>
<stop offset="1" stop-color="#C12753"/>
</linearGradient>
<linearGradient id="paint3_linear_38_2" x1="26.6861" y1="10.1876" x2="29.4206" y2="13.872" gradientUnits="userSpaceOnUse">
<stop stop-color="#FF84A7"/>
<stop offset="1" stop-color="#C12753"/>
</linearGradient>
<linearGradient id="paint4_linear_38_2" x1="79.7112" y1="10.1964" x2="82.4389" y2="13.8943" gradientUnits="userSpaceOnUse">
<stop stop-color="#FF84A7"/>
<stop offset="1" stop-color="#C12753"/>
</linearGradient>
<linearGradient id="paint5_linear_38_2" x1="12.7272" y1="21.3829" x2="16.6125" y2="26.3193" gradientUnits="userSpaceOnUse">
<stop stop-color="#FF84A7"/>
<stop offset="1" stop-color="#C12753"/>
</linearGradient>
<linearGradient id="paint6_linear_38_2" x1="92.4613" y1="21.383" x2="96.288" y2="26.4325" gradientUnits="userSpaceOnUse">
<stop stop-color="#FF84A7"/>
<stop offset="1" stop-color="#C12753"/>
</linearGradient>
<linearGradient id="paint7_linear_38_2" x1="45.9079" y1="55.1616" x2="62.9253" y2="58.8238" gradientUnits="userSpaceOnUse">
<stop stop-color="#FF84A7"/>
<stop offset="1" stop-color="#C12753"/>
</linearGradient>
<linearGradient id="paint8_linear_38_2" x1="55.7432" y1="55.421" x2="72.7532" y2="59.0996" gradientUnits="userSpaceOnUse">
<stop stop-color="#FF84A7"/>
<stop offset="1" stop-color="#C12753"/>
</linearGradient>
<linearGradient id="paint9_linear_38_2" x1="32.5799" y1="100.743" x2="36.3305" y2="105.905" gradientUnits="userSpaceOnUse">
<stop stop-color="#FF84A7"/>
<stop offset="1" stop-color="#C12753"/>
</linearGradient>
<linearGradient id="paint10_linear_38_2" x1="23.9968" y1="101.726" x2="32.2123" y2="103.25" gradientUnits="userSpaceOnUse">
<stop stop-color="#FF84A7"/>
<stop offset="1" stop-color="#C12753"/>
</linearGradient>
<linearGradient id="paint11_linear_38_2" x1="3.62807" y1="103.111" x2="24.9718" y2="121.05" gradientUnits="userSpaceOnUse">
<stop stop-color="#FF84A7"/>
<stop offset="1" stop-color="#C12753"/>
</linearGradient>
<linearGradient id="paint12_linear_38_2" x1="55.058" y1="104.524" x2="73.7563" y2="116.762" gradientUnits="userSpaceOnUse">
<stop stop-color="#FF84A7"/>
<stop offset="1" stop-color="#C12753"/>
</linearGradient>
<linearGradient id="paint13_linear_38_2" x1="41.9708" y1="108.889" x2="57.904" y2="121.103" gradientUnits="userSpaceOnUse">
<stop stop-color="#FF84A7"/>
<stop offset="1" stop-color="#C12753"/>
</linearGradient>
<linearGradient id="paint14_linear_38_2" x1="68.2542" y1="108.848" x2="84.7321" y2="128.808" gradientUnits="userSpaceOnUse">
<stop stop-color="#FF84A7"/>
<stop offset="1" stop-color="#C12753"/>
</linearGradient>
<linearGradient id="paint15_linear_38_2" x1="88.4583" y1="108.825" x2="104.812" y2="129.618" gradientUnits="userSpaceOnUse">
<stop stop-color="#FF84A7"/>
<stop offset="1" stop-color="#C12753"/>
</linearGradient>
<linearGradient id="paint16_linear_38_2" x1="33.142" y1="109.169" x2="41.0963" y2="111.248" gradientUnits="userSpaceOnUse">
<stop stop-color="#FF84A7"/>
<stop offset="1" stop-color="#C12753"/>
</linearGradient>
</defs>
</svg>
