<svg width="512" height="512" viewBox="0 0 512 512" fill="none" xmlns="http://www.w3.org/2000/svg">
<rect x="61.44" y="105.813" width="194.56" height="174.08" fill="#FFDD0F"/>
<path fill-rule="evenodd" clip-rule="evenodd" d="M320.398 187.506C320.398 275.981 248.674 347.705 160.199 347.705C131.988 347.705 105.481 340.412 82.4576 327.61C79.2218 330.588 66.3296 342.069 56.1736 345.624C47.6 348.625 42.3619 349.355 33.2881 349.785C32.7106 349.812 32.1772 349.843 31.6725 349.872L31.5355 349.88C29.2734 350.011 27.564 350.11 24.9661 349.785C19.8672 349.147 16.594 348.707 12.483 345.624C10.6446 344.245 8.32201 341.463 8.32201 341.463C8.32201 341.463 23.602 331.428 31.2076 322.738C36.5408 316.645 43.4452 305.28 46.4032 300.263C17.7173 271.315 0 231.479 0 187.506C0 99.0303 71.7237 27.3066 160.199 27.3066C248.674 27.3066 320.398 99.0303 320.398 187.506ZM76.9068 199.151C57.5846 179.828 57.5846 148.501 76.9068 129.179C96.2287 109.857 127.556 109.857 146.878 129.179L158.813 141.114L170.556 129.371C189.983 109.943 221.482 109.943 240.91 129.371C260.338 148.798 260.338 180.297 240.91 199.725L229.167 211.469L159.196 281.439L88.8419 211.085L76.9068 199.151ZM199.728 375.327C288.185 353.91 353.881 274.215 353.881 179.176C353.881 174.281 353.707 169.428 353.365 164.62C441.122 165.459 512 236.858 512 324.811C512 363.888 498.012 399.694 474.764 427.499C475.61 430.411 478.897 441.18 482.874 447.56C490.793 460.278 512 472.528 512 472.528C512 472.528 496.917 476.604 487.035 476.689C467.753 476.853 440.702 462.063 437.429 460.23C412.662 475.921 383.293 485.011 351.802 485.011C280.976 485.011 220.885 439.05 199.728 375.327Z" fill="url(#paint0_linear_120_21)"/>
<defs>
<linearGradient id="paint0_linear_120_21" x1="0" y1="27.3066" x2="512" y2="484.693" gradientUnits="userSpaceOnUse">
<stop stop-color="#0057FC"/>
<stop offset="1" stop-color="#003496"/>
</linearGradient>
</defs>
</svg>
