<svg width="941" height="722" viewBox="0 0 941 722" fill="none" xmlns="http://www.w3.org/2000/svg">
<g clip-path="url(#clip0_59_3)">
<path fill-rule="evenodd" clip-rule="evenodd" d="M235.036 720.748V484L189.371 495.41V720.748H235.036ZM49.5197 720.748H1V489.705H155.121V535.343H49.5197V586.686H155.121V632.324H49.5197V720.748ZM531.863 552.457V498.262L486.197 515.376V638.029C486.197 710.764 580.383 720.748 580.383 720.748V675.11C580.383 675.11 531.863 670.831 531.863 638.029V595.243H580.383V552.457H531.863ZM406.282 720.748V632.324C406.282 608.079 457.657 595.243 457.657 595.243V549.605C457.657 549.605 360.617 561.014 360.617 632.324V720.748H406.282ZM320.659 549.605V720.748H274.994V563.867L320.659 549.605ZM634.61 657.283H754.483V617.349C754.483 611.644 746.309 596.688 737.358 585.973C728.211 575.021 721.09 570.44 708.818 563.154C702.39 559.337 694.493 555.156 691.693 554.596C677.422 551.744 664.579 551.744 651.735 554.596C647.558 555.525 639.183 559.047 631.757 563.154C619.267 570.06 609.521 578.098 603.216 585.973C597.508 593.104 588.945 607.097 588.945 617.349V657.283C588.945 670.213 600.094 684.623 602.912 688.266L602.913 688.266L602.913 688.267C603.028 688.416 603.13 688.547 603.216 688.659C608.69 695.79 623.195 705.773 631.757 711.478C636.038 714.33 648.881 718.748 656.017 720.035C663.152 721.322 677.422 721.322 684.557 720.035C691.693 718.748 703.386 714.33 708.818 711.478C714.526 708.481 730.223 695.79 730.223 695.79L700.256 664.414C700.256 664.414 695.318 669.135 691.693 671.545C687.544 674.304 685.052 675.818 680.277 677.249C672.271 679.65 666.876 679.65 658.871 677.249C654.096 675.818 651.604 674.304 647.454 671.545C647.229 671.395 647.012 671.25 646.798 671.108C643.558 668.96 641.472 667.577 638.892 664.414C636.84 661.895 634.61 657.283 634.61 657.283ZM634.61 613.319H705.964C705.964 613.319 699.902 604.525 694.547 600.483C689.575 596.731 686.302 594.943 680.277 593.352C675.996 592.222 664.579 591.926 660.298 593.352C654.387 595.322 650.999 596.731 646.028 600.483C640.674 604.525 634.61 613.319 634.61 613.319ZM940 636.603C940 683.075 902.303 720.748 855.803 720.748C809.305 720.748 771.608 683.075 771.608 636.603C771.608 590.13 809.305 552.457 855.803 552.457C902.303 552.457 940 590.13 940 636.603ZM894.335 635.176C894.335 657.231 876.445 675.109 854.377 675.109C832.309 675.109 814.419 657.231 814.419 635.176C814.419 613.122 832.309 595.243 854.377 595.243C876.445 595.243 894.335 613.122 894.335 635.176Z" fill="black"/>
<path fill-rule="evenodd" clip-rule="evenodd" d="M534.398 161.199C534.398 249.674 462.674 321.398 374.199 321.398C345.988 321.398 319.481 314.106 296.458 301.304C293.222 304.281 280.33 315.763 270.174 319.318C261.6 322.319 256.362 323.049 247.288 323.479C246.711 323.506 246.177 323.537 245.673 323.566L245.535 323.574C243.273 323.705 241.564 323.804 238.966 323.479C233.867 322.841 230.594 322.401 226.483 319.318C224.645 317.939 222.322 315.157 222.322 315.157C222.322 315.157 237.602 305.122 245.208 296.432C250.541 290.339 257.445 278.974 260.403 273.956C231.717 245.008 214 205.173 214 161.199C214 72.7237 285.724 1 374.199 1C462.674 1 534.398 72.7237 534.398 161.199ZM290.907 172.844C271.585 153.522 271.585 122.195 290.907 102.873C310.229 83.5508 341.556 83.5508 360.878 102.873L372.812 114.808L384.556 103.064C403.983 83.6364 435.482 83.6364 454.91 103.064C474.338 122.492 474.338 153.991 454.91 173.418L373.196 255.133L290.907 172.844ZM413.728 349.02C502.185 327.603 567.881 247.909 567.881 152.87C567.881 147.975 567.707 143.121 567.365 138.314C655.122 139.153 726 210.551 726 298.505C726 337.581 712.012 373.388 688.764 401.193C689.61 404.105 692.897 414.874 696.874 421.253C704.793 433.971 726 446.222 726 446.222C726 446.222 710.917 450.297 701.035 450.383C681.753 450.547 654.702 435.757 651.429 433.924C626.662 449.615 597.293 458.704 565.802 458.704C494.976 458.704 434.885 412.744 413.728 349.02Z" fill="url(#paint0_linear_59_3)"/>
<path fill-rule="evenodd" clip-rule="evenodd" d="M290.907 102.873C271.585 122.195 271.585 153.522 290.907 172.844L373.196 255.133L454.91 173.418C474.338 153.991 474.338 122.492 454.91 103.064C435.482 83.6366 403.983 83.6366 384.556 103.064L372.812 114.808L360.878 102.873C341.556 83.5509 310.229 83.5509 290.907 102.873Z" fill="#FFDD0F"/>
</g>
<defs>
<linearGradient id="paint0_linear_59_3" x1="214" y1="1" x2="726" y2="458.387" gradientUnits="userSpaceOnUse">
<stop stop-color="#0057FC"/>
<stop offset="1" stop-color="#003496"/>
</linearGradient>
<clipPath id="clip0_59_3">
<rect width="939" height="720" fill="white" transform="translate(1 1)"/>
</clipPath>
</defs>
</svg>
