<svg width="1522" height="458" viewBox="0 0 1522 458" fill="none" xmlns="http://www.w3.org/2000/svg">
<path fill-rule="evenodd" clip-rule="evenodd" d="M817.036 346.748V110L771.371 121.41V346.748H817.036ZM631.52 346.748H583V115.705H737.121V161.343H631.52V212.686H737.121V258.324H631.52V346.748ZM1113.86 178.457V124.262L1068.2 141.376V264.029C1068.2 336.764 1162.38 346.748 1162.38 346.748V301.11C1162.38 301.11 1113.86 296.831 1113.86 264.029V221.243H1162.38V178.457H1113.86ZM988.282 346.748V258.324C988.282 234.079 1039.66 221.243 1039.66 221.243V175.605C1039.66 175.605 942.617 187.014 942.617 258.324V346.748H988.282ZM902.659 175.605V346.748H856.994V189.867L902.659 175.605ZM1216.61 283.283H1336.48V243.349C1336.48 237.644 1328.31 222.688 1319.36 211.973C1310.21 201.021 1303.09 196.44 1290.82 189.154C1284.39 185.337 1276.49 181.156 1273.69 180.596C1259.42 177.744 1246.58 177.744 1233.73 180.596C1229.56 181.525 1221.18 185.047 1213.76 189.154C1201.27 196.06 1191.52 204.098 1185.22 211.973C1179.51 219.104 1170.95 233.097 1170.95 243.349V283.283C1170.95 296.213 1182.09 310.623 1184.91 314.266H1184.91V314.267C1185.03 314.416 1185.13 314.547 1185.22 314.659C1190.69 321.79 1205.2 331.773 1213.76 337.478C1218.04 340.33 1230.88 344.748 1238.02 346.035C1245.15 347.322 1259.42 347.322 1266.56 346.035C1273.69 344.748 1285.39 340.33 1290.82 337.478C1296.53 334.481 1312.22 321.79 1312.22 321.79L1282.26 290.414C1282.26 290.414 1277.32 295.135 1273.69 297.545C1269.54 300.304 1267.05 301.818 1262.28 303.249C1254.27 305.65 1248.88 305.65 1240.87 303.249C1236.1 301.818 1233.6 300.304 1229.45 297.545C1229.23 297.395 1229.01 297.25 1228.8 297.108C1225.56 294.96 1223.47 293.577 1220.89 290.414C1218.84 287.895 1216.61 283.283 1216.61 283.283ZM1216.61 239.319H1287.96C1287.96 239.319 1281.9 230.525 1276.55 226.483C1271.57 222.731 1268.3 220.943 1262.28 219.352C1258 218.222 1246.58 217.926 1242.3 219.352C1236.39 221.322 1233 222.731 1228.03 226.483C1222.67 230.525 1216.61 239.319 1216.61 239.319ZM1522 262.603C1522 309.075 1484.3 346.748 1437.8 346.748C1391.3 346.748 1353.61 309.075 1353.61 262.603C1353.61 216.13 1391.3 178.457 1437.8 178.457C1484.3 178.457 1522 216.13 1522 262.603ZM1476.34 261.176C1476.34 283.231 1458.45 301.109 1436.38 301.109C1414.31 301.109 1396.42 283.231 1396.42 261.176C1396.42 239.122 1414.31 221.243 1436.38 221.243C1458.45 221.243 1476.34 239.122 1476.34 261.176Z" fill="black"/>
<g clip-path="url(#clip0_59_3)">
<path fill-rule="evenodd" clip-rule="evenodd" d="M320.398 160.199C320.398 248.674 248.674 320.398 160.199 320.398C131.988 320.398 105.481 313.106 82.458 300.304C79.222 303.281 66.33 314.763 56.174 318.318C47.6 321.319 42.362 322.049 33.288 322.479C32.711 322.506 32.177 322.537 31.673 322.566L31.535 322.574C29.273 322.705 27.564 322.804 24.966 322.479C19.867 321.841 16.594 321.401 12.483 318.318C10.645 316.939 8.32201 314.157 8.32201 314.157C8.32201 314.157 23.602 304.122 31.208 295.432C36.541 289.339 43.445 277.974 46.403 272.956C17.717 244.008 0 204.173 0 160.199C0 71.7237 71.724 0 160.199 0C248.674 0 320.398 71.7237 320.398 160.199ZM76.907 171.844C57.585 152.522 57.585 121.195 76.907 101.873C96.229 82.5508 127.556 82.5508 146.878 101.873L158.812 113.808L170.556 102.064C189.983 82.6364 221.482 82.6364 240.91 102.064C260.338 121.492 260.338 152.991 240.91 172.418L159.196 254.133L76.907 171.844ZM199.728 348.02C288.185 326.603 353.881 246.909 353.881 151.87C353.881 146.975 353.707 142.121 353.365 137.314C441.122 138.153 512 209.551 512 297.505C512 336.581 498.012 372.388 474.764 400.193C475.61 403.105 478.897 413.874 482.874 420.253C490.793 432.971 512 445.222 512 445.222C512 445.222 496.917 449.297 487.035 449.383C467.753 449.547 440.702 434.757 437.429 432.924C412.662 448.615 383.293 457.704 351.802 457.704C280.976 457.704 220.885 411.744 199.728 348.02Z" fill="url(#paint0_linear_59_3)"/>
<path fill-rule="evenodd" clip-rule="evenodd" d="M76.907 101.873C57.585 121.195 57.585 152.522 76.907 171.844L159.196 254.133L240.91 172.418C260.338 152.991 260.338 121.492 240.91 102.064C221.482 82.6365 189.983 82.6365 170.556 102.064L158.812 113.808L146.878 101.873C127.556 82.5509 96.229 82.5509 76.907 101.873Z" fill="#FFDD0F"/>
</g>
<defs>
<linearGradient id="paint0_linear_59_3" x1="0" y1="0" x2="512" y2="457.387" gradientUnits="userSpaceOnUse">
<stop stop-color="#0057FC"/>
<stop offset="1" stop-color="#003496"/>
</linearGradient>
<clipPath id="clip0_59_3">
<rect width="512" height="458" fill="white"/>
</clipPath>
</defs>
</svg>
