<svg width="150" height="135" viewBox="0 0 150 135" fill="none" xmlns="http://www.w3.org/2000/svg">
<path fill-rule="evenodd" clip-rule="evenodd" d="M93.8666 46.9333C93.8666 72.8537 72.8537 93.8666 46.9333 93.8666C38.6684 93.8666 30.9025 91.7301 24.1575 87.9795C23.2095 88.8519 19.4325 92.2155 16.4571 93.257C13.9453 94.1363 12.4107 94.3502 9.75237 94.4761C9.58317 94.4841 9.42691 94.4932 9.27906 94.5016L9.23891 94.5039C8.57619 94.5423 8.07538 94.5713 7.31428 94.4761C5.82046 94.2893 4.86153 94.1604 3.65714 93.257C3.11853 92.8531 2.43809 92.038 2.43809 92.038C2.43809 92.038 6.91465 89.098 9.14285 86.5523C10.7053 84.7671 12.7281 81.4375 13.5947 79.9676C5.19061 71.4867 0 59.8162 0 46.9333C0 21.0128 21.0128 0 46.9333 0C72.8537 0 93.8666 21.0128 93.8666 46.9333ZM22.5313 50.3449C16.8705 44.6841 16.8705 35.5063 22.5313 29.8455C28.192 24.1848 37.3699 24.1848 43.0306 29.8455L46.5271 33.342L49.9675 29.9016C55.6592 24.2099 64.8874 24.2099 70.5791 29.9016C76.2709 35.5933 76.2709 44.8214 70.5791 50.5131L67.1387 53.9537L46.6394 74.4529L26.0279 53.8414L22.5313 50.3449ZM58.5142 101.959C84.4293 95.6845 103.676 72.3364 103.676 44.493C103.676 43.059 103.625 41.637 103.525 40.2285C129.235 40.4744 150 61.3919 150 87.1596C150 98.6077 145.902 109.098 139.091 117.244C139.339 118.097 140.302 121.252 141.467 123.121C143.787 126.847 150 130.436 150 130.436C150 130.436 145.581 131.63 142.686 131.655C137.037 131.703 129.112 127.37 128.153 126.833C120.897 131.43 112.293 134.093 103.067 134.093C82.3171 134.093 64.7125 120.628 58.5142 101.959Z" fill="#0057FC"/>
</svg>
