<svg width="110" height="115" viewBox="0 0 110 115" fill="none" xmlns="http://www.w3.org/2000/svg">
<path d="M80.2734 2.22645C69.9068 -3.56583 63.4525 9.50784 60.1864 19.464H49.6125C46.3465 9.50784 39.8922 -3.56583 29.5256 2.22645C13.5 11.1806 13.5 64.9403 13.5 64.9403C13.5 64.9403 18.8419 64.9973 21.5128 56.7916C21.2065 61.1305 22.7032 64.6862 24.1837 67.4566C27.7546 66.028 30.7098 61.4995 33.532 56.585C33.8462 58.2639 34.7363 60.7447 35.4184 62.0208C39.1477 60.5288 42.9471 56.7159 45.8175 51.459H63.9817C66.8519 56.7159 70.6515 60.5288 74.3816 62.0208C75.0636 60.7447 75.9537 58.2639 76.268 56.585C79.0902 61.4995 82.0454 66.028 85.6163 67.4566C87.0968 64.6862 88.5935 61.1305 88.2872 56.7916C90.9581 64.997 96.3 64.9403 96.3 64.9403C96.3 64.9403 96.299 11.1806 80.2734 2.22645Z" fill="#E03368" fill-opacity="0.1"/>
<path d="M68.184 11.4652C65.4215 11.4583 62.7123 12.2247 60.3642 13.6772C58.016 15.1299 56.1228 17.2106 54.8996 19.6832C53.6763 17.2106 51.7831 15.1299 49.4349 13.6772C47.0868 12.2247 44.3777 11.4583 41.6152 11.4652C33.4631 11.4652 26.8547 17.9934 26.8547 26.0463C26.8547 45.0018 54.8996 58.1248 54.8996 58.1248C54.8996 58.1248 82.9444 45.0018 82.9444 26.0463C82.9444 17.9934 76.336 11.4652 68.184 11.4652Z" fill="url(#paint0_linear_296_28)"/>
<path d="M32.932 80.0261C33.604 80.1221 34.06 80.3261 34.3 80.6381C34.564 80.9501 34.696 81.3581 34.696 81.8621C34.696 83.5181 33.808 84.2861 32.032 84.1661L30.772 84.0581C29.356 83.9381 27.94 83.8421 26.524 83.7701C25.132 83.6981 23.668 83.6621 22.132 83.6621H20.512C20.224 87.2141 19.924 90.4541 19.612 93.3821L25.804 93.2741C26.692 93.2741 27.28 93.4301 27.568 93.7421C27.88 94.0541 28.036 94.4741 28.036 95.0021C28.036 95.8181 27.796 96.4661 27.316 96.9461C26.836 97.4021 26.152 97.6301 25.264 97.6301H19.108L18.892 99.1781C18.388 103.138 17.308 105.958 15.652 107.638C14.02 109.318 11.764 110.158 8.884 110.158C7.252 110.158 5.752 109.81 4.384 109.114C3.016 108.394 2.008 107.53 1.36 106.522C1.096 106.114 0.964 105.622 0.964 105.046C0.964 104.47 1.096 103.966 1.36 103.534C1.648 103.102 1.996 102.886 2.404 102.886C2.692 102.886 2.968 102.982 3.232 103.174C3.52 103.366 3.88 103.738 4.312 104.29C5.464 105.802 6.892 106.558 8.596 106.558C9.964 106.558 11.104 106.006 12.016 104.902C12.952 103.774 13.552 102.01 13.816 99.6101L14.032 97.6301H12.304C11.752 97.6301 11.272 97.4741 10.864 97.1621C10.48 96.8501 10.288 96.4061 10.288 95.8301C10.288 95.0861 10.48 94.5221 10.864 94.1381C11.248 93.7301 11.812 93.5261 12.556 93.5261C13.228 93.5261 13.888 93.5141 14.536 93.4901C14.824 90.8501 15.136 87.6461 15.472 83.8781C12.88 84.1181 11.056 84.5381 10 85.1381C8.944 85.7381 8.416 86.6261 8.416 87.8021C8.416 88.6181 8.656 89.3981 9.136 90.1421C9.28 90.3581 9.352 90.5741 9.352 90.7901C9.352 91.2221 9.112 91.6061 8.632 91.9421C8.152 92.2541 7.612 92.4101 7.012 92.4101C6.364 92.4101 5.812 92.2181 5.356 91.8341C5.068 91.5941 4.792 91.1021 4.528 90.3581C4.264 89.6141 4.132 88.7861 4.132 87.8741C4.132 84.8981 5.656 82.7381 8.704 81.3941C11.776 80.0501 16.252 79.3781 22.132 79.3781C26.212 79.3781 29.812 79.5941 32.932 80.0261ZM42.0009 101.842C42.3129 101.842 42.5529 101.986 42.7209 102.274C42.9129 102.562 43.0089 102.958 43.0089 103.462C43.0089 104.422 42.7809 105.166 42.3249 105.694C41.2929 106.966 40.1649 108.01 38.9409 108.826C37.7409 109.642 36.3729 110.05 34.8369 110.05C32.7249 110.05 31.1529 109.09 30.1209 107.17C29.1129 105.25 28.6089 102.766 28.6089 99.7181C28.6089 96.7901 28.9809 93.4541 29.7249 89.7101C30.4929 85.9661 31.6089 82.7501 33.0729 80.0621C34.5609 77.3741 36.3249 76.0301 38.3649 76.0301C39.5169 76.0301 40.4169 76.5701 41.0649 77.6501C41.7369 78.7061 42.0729 80.2301 42.0729 82.2221C42.0729 85.0781 41.2809 88.3901 39.6969 92.1581C38.1129 95.9261 35.9649 99.6581 33.2529 103.354C33.4209 104.338 33.6969 105.046 34.0809 105.478C34.4649 105.886 34.9689 106.09 35.5929 106.09C36.5769 106.09 37.4409 105.814 38.1849 105.262C38.9289 104.686 39.8769 103.714 41.0289 102.346C41.3169 102.01 41.6409 101.842 42.0009 101.842ZM37.5729 79.5941C37.0209 79.5941 36.3969 80.5901 35.7009 82.5821C35.0049 84.5741 34.3929 87.0461 33.8649 89.9981C33.3369 92.9501 33.0489 95.7821 33.0009 98.4941C34.7049 95.6861 36.0609 92.8781 37.0689 90.0701C38.0769 87.2381 38.5809 84.6581 38.5809 82.3301C38.5809 80.5061 38.2449 79.5941 37.5729 79.5941ZM44.8151 90.7181C43.8071 90.7181 43.0511 90.4901 42.5471 90.0341C42.0431 89.5541 41.7911 88.8941 41.7911 88.0541C41.7911 87.2141 42.1151 86.5181 42.7631 85.9661C43.4351 85.3901 44.2631 85.1021 45.2471 85.1021C46.1351 85.1021 46.8551 85.3181 47.4071 85.7501C47.9591 86.1821 48.2351 86.7941 48.2351 87.5861C48.2351 88.5461 47.9231 89.3141 47.2991 89.8901C46.6751 90.4421 45.8471 90.7181 44.8151 90.7181ZM44.5271 110.05C42.9671 110.05 41.8271 109.498 41.1071 108.394C40.4111 107.29 40.0631 105.826 40.0631 104.002C40.0631 102.922 40.1951 101.542 40.4591 99.8621C40.7471 98.1581 41.1071 96.5741 41.5391 95.1101C41.7551 94.3421 42.0431 93.8141 42.4031 93.5261C42.7631 93.2381 43.3391 93.0941 44.1311 93.0941C45.3551 93.0941 45.9671 93.5021 45.9671 94.3181C45.9671 94.9181 45.7391 96.3101 45.2831 98.4941C44.7071 101.134 44.4191 102.922 44.4191 103.858C44.4191 104.578 44.5151 105.13 44.7071 105.514C44.8991 105.898 45.2231 106.09 45.6791 106.09C46.1111 106.09 46.6511 105.79 47.2991 105.19C47.9471 104.59 48.8111 103.642 49.8911 102.346C50.1791 102.01 50.5031 101.842 50.8631 101.842C51.1751 101.842 51.4151 101.986 51.5831 102.274C51.7751 102.562 51.8711 102.958 51.8711 103.462C51.8711 104.422 51.6431 105.166 51.1871 105.694C48.8111 108.598 46.5911 110.05 44.5271 110.05ZM63.5025 98.0261C64.0305 98.0261 64.4745 98.2181 64.8345 98.6021C65.2185 98.9621 65.4105 99.4181 65.4105 99.9701C65.4105 100.282 65.3385 100.618 65.1945 100.978C64.8105 101.866 64.2705 102.61 63.5745 103.21C62.8785 103.81 62.1105 104.11 61.2705 104.11C60.5985 104.11 60.0225 103.87 59.5425 103.39C59.0865 102.91 58.8585 102.262 58.8585 101.446C58.8585 100.99 58.8825 100.498 58.9305 99.9701C58.9785 99.5861 59.0025 99.3221 59.0025 99.1781C59.0025 98.9861 58.9545 98.8421 58.8585 98.7461C58.7865 98.6501 58.6905 98.6021 58.5705 98.6021C58.2345 98.6021 57.7785 99.0101 57.2025 99.8261C56.6265 100.618 56.0505 101.674 55.4745 102.994C54.8985 104.314 54.4305 105.706 54.0705 107.17C53.8065 108.322 53.5065 109.09 53.1705 109.474C52.8345 109.858 52.2825 110.05 51.5145 110.05C50.6025 110.05 49.9545 109.57 49.5705 108.61C49.2105 107.65 49.0305 106.114 49.0305 104.002C49.0305 100.882 49.4745 97.9181 50.3625 95.1101C50.5785 94.4141 50.9265 93.9101 51.4065 93.5981C51.9105 93.2621 52.6065 93.0941 53.4945 93.0941C53.9745 93.0941 54.3105 93.1541 54.5025 93.2741C54.6945 93.3941 54.7905 93.6221 54.7905 93.9581C54.7905 94.3421 54.6105 95.2061 54.2505 96.5501C54.0105 97.5101 53.8185 98.3501 53.6745 99.0701C53.5305 99.7901 53.4105 100.678 53.3145 101.734C54.1065 99.6701 54.9945 97.9901 55.9785 96.6941C56.9625 95.3981 57.9225 94.4741 58.8585 93.9221C59.7945 93.3701 60.6465 93.0941 61.4145 93.0941C62.1105 93.0941 62.6385 93.2981 62.9985 93.7061C63.3825 94.0901 63.5745 94.6661 63.5745 95.4341C63.5745 95.8901 63.4425 96.7541 63.1785 98.0261H63.5025ZM82.8387 101.842C83.1507 101.842 83.3907 101.986 83.5587 102.274C83.7507 102.562 83.8467 102.958 83.8467 103.462C83.8467 104.422 83.6187 105.166 83.1627 105.694C82.1307 106.966 81.0027 108.01 79.7787 108.826C78.5547 109.642 77.1507 110.05 75.5667 110.05C70.6707 110.05 68.2227 106.606 68.2227 99.7181C68.2227 98.6621 68.2587 97.5941 68.3307 96.5141H66.9267C66.2067 96.5141 65.7147 96.3821 65.4507 96.1181C65.2107 95.8541 65.0907 95.4341 65.0907 94.8581C65.0907 93.5141 65.6307 92.8421 66.7107 92.8421H68.7627C69.1707 90.2021 69.7947 87.7901 70.6347 85.6061C71.4747 83.4221 72.4827 81.6821 73.6587 80.3861C74.8587 79.0901 76.1427 78.4421 77.5107 78.4421C78.5187 78.4421 79.3107 78.8861 79.8867 79.7741C80.4627 80.6621 80.7507 81.7781 80.7507 83.1221C80.7507 86.8421 79.1907 90.0821 76.0707 92.8421H80.1027C80.4867 92.8421 80.7627 92.9261 80.9307 93.0941C81.0987 93.2621 81.1827 93.5741 81.1827 94.0301C81.1827 95.6861 79.8267 96.5141 77.1147 96.5141H72.7227C72.6747 97.7141 72.6507 98.6501 72.6507 99.3221C72.6507 101.818 72.9387 103.57 73.5147 104.578C74.1147 105.586 75.0507 106.09 76.3227 106.09C77.3547 106.09 78.2667 105.778 79.0587 105.154C79.8507 104.53 80.7867 103.594 81.8667 102.346C82.1547 102.01 82.4787 101.842 82.8387 101.842ZM76.5387 81.8981C76.1787 81.8981 75.7707 82.3541 75.3147 83.2661C74.8827 84.1541 74.4627 85.4021 74.0547 87.0101C73.6707 88.5941 73.3467 90.3581 73.0827 92.3021C74.4987 91.0781 75.5547 89.7101 76.2507 88.1981C76.9707 86.6621 77.3307 85.2701 77.3307 84.0221C77.3307 82.6061 77.0667 81.8981 76.5387 81.8981ZM96.9715 101.842C97.2835 101.842 97.5235 101.986 97.6915 102.274C97.8835 102.562 97.9795 102.958 97.9795 103.462C97.9795 104.422 97.7515 105.166 97.2955 105.694C96.4075 106.774 95.1475 107.77 93.5155 108.682C91.9075 109.594 90.1795 110.05 88.3315 110.05C85.8115 110.05 83.8555 109.366 82.4635 107.998C81.0715 106.63 80.3755 104.758 80.3755 102.382C80.3755 100.726 80.7235 99.1901 81.4195 97.7741C82.1155 96.3341 83.0755 95.1941 84.2995 94.3541C85.5475 93.5141 86.9515 93.0941 88.5115 93.0941C89.9035 93.0941 91.0195 93.5141 91.8595 94.3541C92.6995 95.1701 93.1195 96.2861 93.1195 97.7021C93.1195 99.3581 92.5195 100.786 91.3195 101.986C90.1435 103.162 88.1395 104.098 85.3075 104.794C85.9075 105.898 87.0475 106.45 88.7275 106.45C89.8075 106.45 91.0315 106.078 92.3995 105.334C93.7915 104.566 94.9915 103.57 95.9995 102.346C96.2875 102.01 96.6115 101.842 96.9715 101.842ZM87.8995 96.6221C87.0115 96.6221 86.2555 97.1381 85.6315 98.1701C85.0315 99.2021 84.7315 100.45 84.7315 101.914V101.986C86.1475 101.65 87.2635 101.146 88.0795 100.474C88.8955 99.8021 89.3035 99.0221 89.3035 98.1341C89.3035 97.6781 89.1715 97.3181 88.9075 97.0541C88.6675 96.7661 88.3315 96.6221 87.8995 96.6221ZM101.132 110.05C99.7163 110.05 98.5043 109.702 97.4963 109.006C96.5123 108.286 95.7683 107.35 95.2643 106.198C94.7603 105.046 94.5083 103.81 94.5083 102.49C94.5083 100.666 94.8443 99.0461 95.5163 97.6301C96.2123 96.1901 97.1483 95.0741 98.3243 94.2821C99.5003 93.4661 100.82 93.0581 102.284 93.0581C103.7 93.0581 104.912 93.4181 105.92 94.1381C106.928 94.8341 107.684 95.7581 108.188 96.9101C108.692 98.0621 108.944 99.2981 108.944 100.618C108.944 102.442 108.596 104.074 107.9 105.514C107.204 106.93 106.256 108.046 105.056 108.862C103.88 109.654 102.572 110.05 101.132 110.05ZM101.528 106.162C102.344 106.162 103.028 105.718 103.58 104.83C104.156 103.942 104.444 102.646 104.444 100.942C104.444 99.6221 104.204 98.6261 103.724 97.9541C103.244 97.2821 102.668 96.9461 101.996 96.9461C101.132 96.9461 100.412 97.3901 99.8363 98.2781C99.2843 99.1421 99.0083 100.438 99.0083 102.166C99.0083 103.534 99.2483 104.542 99.7283 105.19C100.208 105.838 100.808 106.162 101.528 106.162Z" fill="url(#paint1_linear_296_28)"/>
<defs>
<linearGradient id="paint0_linear_296_28" x1="26.8547" y1="11.4652" x2="72.7349" y2="66.6178" gradientUnits="userSpaceOnUse">
<stop stop-color="#FF84A7"/>
<stop offset="1" stop-color="#E03368"/>
</linearGradient>
<linearGradient id="paint1_linear_296_28" x1="1" y1="74.8701" x2="109.955" y2="114.924" gradientUnits="userSpaceOnUse">
<stop stop-color="#FF84A7"/>
<stop offset="1" stop-color="#E03368"/>
</linearGradient>
</defs>
</svg>
