<svg width="192" height="192" viewBox="0 0 192 192" fill="none" xmlns="http://www.w3.org/2000/svg">
<path d="M95.2382 54.4678H40.4482V103.49H95.2382V54.4678Z" fill="#FFDD0F"/>
<path fill-rule="evenodd" clip-rule="evenodd" d="M113.373 77.4742C113.373 102.389 93.1744 122.588 68.2591 122.588C60.3146 122.588 52.8499 120.534 46.3664 116.929C45.4551 117.767 41.8245 121.001 38.9645 122.001C36.5501 122.847 35.075 123.052 32.5198 123.173C32.3571 123.181 32.2069 123.189 32.0648 123.198L32.0262 123.2C31.3892 123.237 30.9078 123.265 30.1762 123.173C28.7403 122.993 27.8185 122.87 26.6608 122.001C26.1431 121.613 25.489 120.83 25.489 120.83C25.489 120.83 29.7921 118.004 31.9339 115.557C33.4357 113.841 35.3801 110.64 36.2131 109.227C28.1349 101.075 23.1455 89.8573 23.1455 77.4742C23.1455 52.5584 43.3436 32.3604 68.2591 32.3604C93.1744 32.3604 113.373 52.5584 113.373 77.4742ZM44.8032 80.7532C39.3619 75.312 39.3619 66.4898 44.8032 61.0486C50.2444 55.6073 59.0665 55.6073 64.5078 61.0486L67.8688 64.4096L71.1757 61.1026C76.6467 55.6316 85.5169 55.6316 90.988 61.1026C96.4592 66.5735 96.4592 75.4441 90.988 80.9152L87.6812 84.222L67.9766 103.926L48.1642 84.114L44.8032 80.7532ZM79.3909 130.366C104.301 124.335 122.802 101.892 122.802 75.128C122.802 73.7496 122.753 72.3831 122.657 71.0291C147.37 71.2653 167.33 91.372 167.33 116.14C167.33 127.145 163.39 137.228 156.843 145.058C157.082 145.878 158.007 148.911 159.127 150.708C161.358 154.289 167.33 157.739 167.33 157.739C167.33 157.739 163.082 158.887 160.299 158.91C154.869 158.957 147.251 154.792 146.33 154.276C139.355 158.694 131.084 161.254 122.216 161.254C102.271 161.254 85.3486 148.311 79.3909 130.366Z" fill="url(#paint0_linear_0_1)"/>
<defs>
<linearGradient id="paint0_linear_0_1" x1="23.1455" y1="32.3604" x2="167.33" y2="161.165" gradientUnits="userSpaceOnUse">
<stop stop-color="#0057FC"/>
<stop offset="1" stop-color="#003496"/>
</linearGradient>
</defs>
</svg>
