<svg width="124" height="110" viewBox="0 0 124 110" fill="none" xmlns="http://www.w3.org/2000/svg">
    <path d="M62 19H15V61H62V19Z" fill="#FFDD0F"/>
    <path fill-rule="evenodd" clip-rule="evenodd" d="M77.5965 38.5009C77.5965 59.7636 60.2255 77.0018 38.7981 77.0018C31.9658 77.0018 25.5461 75.2489 19.9702 72.1723C19.1865 72.8875 16.0641 75.6474 13.6045 76.5008C11.5281 77.2228 10.2595 77.3978 8.06198 77.501C7.92206 77.5078 7.79289 77.5147 7.67068 77.5224L7.63748 77.5241C7.08966 77.5556 6.67565 77.5795 6.04647 77.501C4.81158 77.3474 4.01882 77.2424 3.02319 76.5008C2.57796 76.1697 2.01543 75.5015 2.01543 75.5015C2.01543 75.5015 5.71614 73.0897 7.55811 71.0014C8.84967 69.5369 10.5219 66.8051 11.2383 65.5993C4.29093 58.6422 0 49.0688 0 38.5009C0 17.2373 17.3706 0 38.7981 0C60.2255 0 77.5965 17.2373 77.5965 38.5009ZM18.6258 41.2992C13.9463 36.6556 13.9463 29.1266 18.6258 24.483C23.3053 19.8393 30.8924 19.8393 35.572 24.483L38.4624 27.3513L41.3064 24.5291C46.0115 19.86 53.64 19.86 58.3452 24.5291C63.0505 29.198 63.0505 36.7684 58.3452 41.4375L55.5013 44.2596L38.5552 61.0753L21.5163 44.1674L18.6258 41.2992ZM48.3716 83.6397C69.7945 78.4927 85.7055 59.3395 85.7055 36.4986C85.7055 35.3222 85.6634 34.1561 85.5808 33.0005C106.834 33.2021 124 50.3615 124 71.4989C124 80.8908 120.612 89.4958 114.981 96.1781C115.187 96.8779 115.982 99.4663 116.945 101C118.864 104.056 124 107 124 107C124 107 120.347 107.98 117.953 108C113.283 108.04 106.732 104.485 105.94 104.045C99.9412 107.815 92.8281 110 85.2015 110C68.0487 110 53.4952 98.9542 48.3716 83.6397Z" fill="url(#paint0_linear_0_1)"/>
    <defs>
        <linearGradient id="paint0_linear_0_1" x1="0" y1="0" x2="123.152" y2="110.866" gradientUnits="userSpaceOnUse">
            <stop stop-color="#0057FC"/>
            <stop offset="1" stop-color="#003496"/>
        </linearGradient>
    </defs>
</svg>