<svg width="512" height="458" viewBox="0 0 512 458" fill="none" xmlns="http://www.w3.org/2000/svg">
<path fill-rule="evenodd" clip-rule="evenodd" d="M320.398 160.199C320.398 248.674 248.674 320.398 160.199 320.398C131.988 320.398 105.481 313.106 82.458 300.304C79.222 303.281 66.33 314.763 56.174 318.318C47.6 321.319 42.362 322.049 33.288 322.479C32.711 322.506 32.177 322.537 31.673 322.566L31.535 322.574C29.273 322.705 27.564 322.804 24.966 322.479C19.867 321.841 16.594 321.401 12.483 318.318C10.645 316.939 8.32201 314.157 8.32201 314.157C8.32201 314.157 23.602 304.122 31.208 295.432C36.541 289.339 43.445 277.974 46.403 272.956C17.717 244.008 0 204.173 0 160.199C0 71.7237 71.724 0 160.199 0C248.674 0 320.398 71.7237 320.398 160.199ZM76.907 171.844C57.585 152.522 57.585 121.195 76.907 101.873C96.229 82.5508 127.556 82.5508 146.878 101.873L158.812 113.808L170.556 102.064C189.983 82.6364 221.482 82.6364 240.91 102.064C260.338 121.492 260.338 152.991 240.91 172.418L159.196 254.133L76.907 171.844ZM199.728 348.02C288.185 326.603 353.881 246.909 353.881 151.87C353.881 146.975 353.707 142.121 353.365 137.314C441.122 138.153 512 209.551 512 297.505C512 336.581 498.012 372.388 474.764 400.193C475.61 403.105 478.897 413.874 482.874 420.253C490.793 432.971 512 445.222 512 445.222C512 445.222 496.917 449.297 487.035 449.383C467.753 449.547 440.702 434.757 437.429 432.924C412.662 448.615 383.293 457.704 351.802 457.704C280.976 457.704 220.885 411.744 199.728 348.02Z" fill="url(#paint0_linear_59_3)"/>
<path fill-rule="evenodd" clip-rule="evenodd" d="M76.907 101.873C57.585 121.195 57.585 152.522 76.907 171.844L159.196 254.133L240.91 172.418C260.338 152.991 260.338 121.492 240.91 102.064C221.482 82.6365 189.983 82.6365 170.556 102.064L158.812 113.808L146.878 101.873C127.556 82.5509 96.229 82.5509 76.907 101.873Z" fill="#FFDD0F"/>
<defs>
<linearGradient id="paint0_linear_59_3" x1="0" y1="0" x2="512" y2="457.387" gradientUnits="userSpaceOnUse">
<stop stop-color="#0057FC"/>
<stop offset="1" stop-color="#003496"/>
</linearGradient>
</defs>
</svg>
