<svg width="62" height="61" viewBox="0 0 62 61" fill="none" xmlns="http://www.w3.org/2000/svg">
<path fill-rule="evenodd" clip-rule="evenodd" d="M42 0H60C61.1046 0 62 0.89543 62 2V20C62 21.1046 61.1046 22 60 22C58.8954 22 58 21.1046 58 20V6.82841L44.4886 20.3398C47.9365 24.6252 50 30.0716 50 36C50 49.8071 38.8071 61 25 61C11.1929 61 0 49.8071 0 36C0 22.1929 11.1929 11 25 11C31.4384 11 37.3083 13.4338 41.74 17.4316L55.1716 4H42C40.8954 4 40 3.10457 40 2C40 0.89543 40.8954 0 42 0Z" fill="#D9D9D9"/>
</svg>
